<?xml version="1.0" standalone="no"?>
<!DOCTYPE svg PUBLIC "-//W3C//DTD SVG 20010904//EN"
 "http://www.w3.org/TR/2001/REC-SVG-20010904/DTD/svg10.dtd">
<svg version="1.0" xmlns="http://www.w3.org/2000/svg"
 width="260.000000pt" height="260.000000pt" viewBox="0 0 260.000000 260.000000"
 preserveAspectRatio="xMidYMid meet">
<metadata>
Created by potrace 1.11, written by Peter Selinger 2001-2013
</metadata>
<g transform="translate(0.000000,260.000000) scale(0.100000,-0.100000)"
fill="#000000" stroke="none">
<path d="M1190 2585 c-272 -86 -385 -389 -233 -625 188 -292 630 -230 735 103
68 219 -53 450 -272 517 -69 22 -171 24 -230 5z m166 -250 c33 -7 83 -65 95
-109 15 -55 3 -101 -37 -146 -52 -58 -124 -68 -194 -29 -42 24 -80 87 -80 134
0 38 24 89 56 119 43 40 85 48 160 31z"/>
<path d="M337 2100 c-161 -29 -294 -162 -329 -332 -24 -115 20 -272 98 -352
80 -83 168 -125 281 -133 283 -22 500 252 420 528 -16 55 -55 122 -100 171
-30 34 -129 95 -177 108 -52 15 -139 20 -193 10z m146 -266 c106 -55 116 -205
18 -269 -45 -30 -85 -37 -133 -24 -111 29 -149 174 -70 263 40 45 128 59 185
30z"/>
<path d="M2110 2099 c-64 -13 -160 -62 -205 -106 -110 -107 -152 -253 -114
-402 65 -257 343 -383 584 -265 73 35 140 106 183 193 36 72 37 79 36 175 0
87 -4 109 -27 160 -49 108 -132 187 -237 227 -58 22 -160 30 -220 18z m163
-274 c47 -32 70 -78 70 -136 0 -55 -22 -96 -69 -127 -125 -82 -286 46 -233
185 12 33 56 82 84 93 42 18 109 11 148 -15z"/>
<path d="M1192 1504 c-200 -42 -363 -194 -417 -389 -16 -58 -18 -61 -78 -94
-169 -94 -278 -292 -272 -493 5 -144 58 -262 166 -370 165 -163 393 -201 615
-103 79 35 107 33 214 -10 88 -36 103 -39 195 -39 107 -1 135 3 205 28 172 63
306 219 344 401 16 79 12 202 -10 269 -43 135 -148 263 -262 324 -35 19 -61
36 -59 39 10 9 -25 108 -59 170 -112 202 -356 314 -582 267z m236 -273 c96
-49 148 -129 161 -247 11 -96 39 -133 116 -153 126 -32 219 -156 216 -290 -2
-142 -121 -271 -261 -284 -44 -4 -143 15 -164 32 -23 18 -121 43 -178 46 -52
2 -77 -1 -148 -19 -8 -3 -42 -16 -75 -31 -202 -91 -419 51 -416 271 1 128 102
251 228 278 29 7 92 56 94 74 0 4 2 21 5 37 2 17 6 49 9 73 10 88 78 176 168
218 67 31 179 29 245 -5z"/>
</g>
</svg>
